<?xml version="1.0" encoding="UTF-8"?>
<svg id="Layer_1" data-name="Layer 1" xmlns="http://www.w3.org/2000/svg" viewBox="0 0 37.18 39.07">
  <defs>
    <style>
      .cls-1 {
        fill: none;
        stroke: #db1f26;
        stroke-miterlimit: 10;
        stroke-width: 5px;
      }
    </style>
  </defs>
  <path class="cls-1" d="m34.64,11.12l-7.77-.05-8.27-.05c-4.43-.03-8.05,3.76-8.07,8.47-.03,4.7,3.54,8.54,7.97,8.57,4.43.03,8.05-3.76,8.07-8.47l.05-8.52,8.02.05m-.05,8.52c-.02,3.1-.82,6.01-2.2,8.5-1.43,2.58-3.47,4.72-5.91,6.2-2.37,1.44-5.11,2.25-8.04,2.23s-5.66-.86-8.01-2.33c-2.43-1.51-4.45-3.68-5.84-6.28-1.35-2.52-2.11-5.43-2.09-8.53.02-3.1.82-6.01,2.2-8.5,1.42-2.58,3.47-4.72,5.91-6.2,2.37-1.44,5.11-2.25,8.04-2.23l14.65.09c.77,0,1.39.64,1.39,1.41l-.1,15.63Z"/>
</svg>