<?xml version="1.0" encoding="UTF-8"?>
<svg id="Layer_1" data-name="Layer 1" xmlns="http://www.w3.org/2000/svg" viewBox="0 0 351.97 405.47">
  <defs>
    <style>
      .cls-1 {
        letter-spacing: -.02em;
      }

      .cls-2 {
        letter-spacing: -.02em;
      }

      .cls-3 {
        fill: none;
        stroke: #db1f26;
        stroke-miterlimit: 10;
        stroke-width: 10px;
      }

      .cls-4 {
        fill: #231f20;
        font-family: FiraSans-Bold, 'Fira Sans';
        font-size: 60px;
        font-weight: 700;
      }

      .cls-5 {
        letter-spacing: 0em;
      }
    </style>
  </defs>
  <g>
    <path class="cls-3" d="m90.49,222.22h-28.5c-.24,0-.48,0-.72,0-10.09,0-19.56,2.49-27.78,6.88-8.98,4.78-16.45,11.8-21.59,20.27-3.41,5.61-5.79,11.86-6.91,18.51v17.29c1.11,6.65,3.5,12.9,6.91,18.51,5.14,8.47,12.61,15.5,21.59,20.27,8.22,4.39,17.69,6.88,27.78,6.88.24,0,.48,0,.72,0,10.41-.12,20.15-2.9,28.5-7.66,8.33-4.75,15.28-11.48,20.15-19.49,4.85-7.99,7.63-17.26,7.63-27.15l.07-27.15.66-27.15v-108.61s0-27.15,0-27.15v-27.15c0-9.89-2.77-19.16-7.63-27.15-5-8.25-12.22-15.12-20.87-19.88-8.39-4.62-18.11-7.27-28.5-7.27s-20.12,2.64-28.5,7.27c-8.65,4.77-15.86,11.64-20.87,19.88-4.85,7.99-7.63,17.26-7.63,27.15s2.77,19.16,7.63,27.15c5.01,8.25,12.22,15.11,20.87,19.88,8.38,4.62,18.11,7.27,28.5,7.27h28.5s0-27.15,0-27.15h-28.5c-15.73,0-28.5-12.16-28.5-27.15s12.77-27.15,28.5-27.15c15.74,0,28.5,12.16,28.5,27.15v27.15s0,27.15,0,27.15v135.76s0,27.15,0,27.15c0,15-12.76,27.15-28.5,27.15-15.73,0-28.5-12.16-28.5-27.15s15.28-27.15,28.5-27.15h28.5s0-27.15,0-27.15Zm28.5,27.15h113.99s27.6,0,27.6,0h29.39c15.74,0,28.5,12.16,28.5,27.15,0,15-12.76,27.15-28.5,27.15-15.73,0-28.5-12.16-28.5-27.15l-.9-27.15h-27.6s0,27.15,0,27.15c0,9.95,2.77,19.16,7.63,27.15,5.01,8.25,12.22,15.11,20.87,19.88,8.38,4.62,18.11,7.27,28.5,7.27,10.38,0,20.11-2.64,28.5-7.27,8.65-4.76,15.87-11.64,20.87-19.88,4.85-7.99,7.63-17.26,7.63-27.15s-2.77-19.16-7.63-27.15c-5-8.25-12.22-15.12-20.87-19.88-8.39-4.62-18.11-7.27-28.5-7.27h-28.5s-28.5,0-28.5,0h-113.99m92.11,4.42,17.82,22.73"/>
    <polyline class="cls-3" points="261.47 113.61 261.47 222.22 232.98 222.22 232.98 113.61"/>
    <path class="cls-3" d="m118.99,86.46,141.59,0h29.39c15.74,0,28.5-12.16,28.5-27.15s-12.76-27.15-28.5-27.15-28.5,12.16-28.5,27.15v27.15h-28.5s0-27.15,0-27.15c0-9.89,2.77-19.16,7.63-27.15,5.01-8.25,12.22-15.11,20.87-19.88,8.38-4.63,18.11-7.27,28.5-7.27,10.38,0,20.11,2.64,28.5,7.27,8.65,4.76,15.87,11.64,20.87,19.88,4.85,7.99,7.63,17.26,7.63,27.15s-2.77,19.16-7.63,27.15c-5,8.25-12.22,15.12-20.87,19.88-8.39,4.62-18.11,7.27-28.5,7.27H118.99v-27.15h113.99s27.6,0,27.6,0Z"/>
  </g>
  <text class="cls-4" transform="translate(42.5 384.23)"><tspan x="0" y="0">Joe </tspan><tspan class="cls-1" x="101.4" y="0">L</tspan><tspan class="cls-5" x="130.68" y="0">e</tspan><tspan class="cls-2" x="163.8" y="0">g</tspan><tspan x="195.54" y="0">en</tspan></text>
</svg>