<?xml version="1.0" encoding="UTF-8"?>
<svg id="Layer_1" data-name="Layer 1" xmlns="http://www.w3.org/2000/svg" viewBox="0 0 23.99 23.84">
  <defs>
    <style>
      .cls-1 {
        fill: #0260aa;
        stroke-width: 0px;
      }

      .cls-2 {
        fill: none;
        stroke: #eee;
        stroke-miterlimit: 10;
      }
    </style>
  </defs>
  <path class="cls-1" d="m18.84,15.48v2.73c0,.41-.31.74-.71.77-.33.02-.6.04-.81.04-6.72,0-12.16-5.53-12.16-12.35,0-.21.01-.49.04-.83.03-.4.36-.72.76-.72h2.69c.2,0,.36.15.38.35.02.18.03.32.05.43.15,1.09.47,2.13.92,3.09.07.15.03.34-.11.44l-1.64,1.19c1,2.37,2.87,4.27,5.2,5.28l1.17-1.66c.1-.14.28-.19.44-.11.95.46,1.97.77,3.04.93.1.02.24.03.42.05.19.02.34.19.34.38Z"/>
  <rect class="cls-2" x=".5" y=".5" width="22.99" height="22.84" rx="5.3" ry="5.3"/>
</svg>