<?xml version="1.0" encoding="UTF-8"?>
<svg id="Layer_1" data-name="Layer 1" xmlns="http://www.w3.org/2000/svg" viewBox="0 0 367 367">
  <defs>
    <style>
      .cls-1 {
        fill: none;
        stroke: #aaa;
        stroke-miterlimit: 10;
        stroke-width: 7px;
      }
    </style>
  </defs>
  <path class="cls-1" d="m93.5,243.5h-30c-.25,0-.51,0-.76,0-10.62,0-20.59,2.75-29.24,7.6-9.45,5.28-17.32,13.04-22.73,22.4-3.59,6.2-6.1,13.1-7.27,20.45v19.1c1.17,7.35,3.68,14.25,7.27,20.45,5.41,9.36,13.28,17.12,22.73,22.4,8.65,4.85,18.62,7.6,29.24,7.6.25,0,.51,0,.76,0,10.96-.13,21.21-3.2,30-8.46,8.77-5.25,16.09-12.68,21.21-21.53,5.11-8.83,8.03-19.07,8.03-30l.07-30,.69-30v-120s0-30,0-30v-30c0-10.93-2.92-21.17-8.03-30-5.26-9.11-12.86-16.71-21.97-21.97-8.83-5.11-19.07-8.03-30-8.03s-21.18,2.92-30,8.03c-9.11,5.27-16.7,12.86-21.97,21.97-5.11,8.83-8.03,19.07-8.03,30s2.92,21.17,8.03,30c5.27,9.11,12.86,16.7,21.97,21.97,8.82,5.11,19.07,8.03,30,8.03h30s0-30,0-30h-30c-16.56,0-30-13.43-30-30,0-16.57,13.44-30,30-30s30,13.43,30,30v30s0,30,0,30v150s0,30,0,30c0,16.57-13.43,30-30,30-16.56,0-30-13.43-30-30,0-16.57,16.08-30,30-30h30s0-30,0-30Zm30,30h120s29.06,0,29.06,0h30.94c16.57,0,30,13.43,30,30s-13.43,30-30,30c-16.56,0-30-13.43-30-30l-.94-30h-29.06s0,30,0,30c0,10.99,2.92,21.17,8.03,30,5.27,9.11,12.86,16.7,21.97,21.97,8.82,5.11,19.07,8.03,30,8.03s21.17-2.92,30-8.03c9.11-5.26,16.71-12.86,21.97-21.97,5.11-8.83,8.03-19.07,8.03-30s-2.92-21.17-8.03-30c-5.26-9.11-12.86-16.71-21.97-21.97-8.83-5.11-19.07-8.03-30-8.03h-30s-30,0-30,0h-120m96.97,4.88,18.76,25.12"/>
  <polyline class="cls-1" points="273.5 123.5 273.5 243.5 243.5 243.5 243.5 123.5"/>
  <path class="cls-1" d="m123.5,93.5,149.06,0h30.94c16.57,0,30-13.43,30-30s-13.43-30-30-30c-16.56,0-30,13.43-30,30v30h-30s0-30,0-30c0-10.93,2.92-21.17,8.03-30,5.27-9.11,12.86-16.7,21.97-21.97,8.82-5.11,19.07-8.03,30-8.03,10.93,0,21.17,2.92,30,8.03,9.11,5.26,16.71,12.86,21.97,21.97,5.11,8.83,8.03,19.07,8.03,30,0,10.93-2.92,21.17-8.03,30-5.26,9.11-12.86,16.71-21.97,21.97-8.83,5.11-19.07,8.03-30,8.03H123.5v-30h120s29.06,0,29.06,0Z"/>
</svg>